<svg width="62" height="24" viewBox="0 0 62 24" fill="none" xmlns="http://www.w3.org/2000/svg">
<path d="M25.2784 18V6.36364H29.5398C30.3655 6.36364 31.0492 6.5 31.5909 6.77273C32.1326 7.04167 32.5379 7.4072 32.8068 7.86932C33.0758 8.32765 33.2102 8.8447 33.2102 9.42045C33.2102 9.9053 33.1212 10.3144 32.9432 10.6477C32.7652 10.9773 32.5265 11.2424 32.2273 11.4432C31.9318 11.6402 31.6061 11.7841 31.25 11.875V11.9886C31.6364 12.0076 32.0133 12.1326 32.3807 12.3636C32.7519 12.5909 33.0587 12.9148 33.3011 13.3352C33.5436 13.7557 33.6648 14.267 33.6648 14.8693C33.6648 15.464 33.5246 15.9981 33.2443 16.4716C32.9678 16.9413 32.5398 17.3144 31.9602 17.5909C31.3807 17.8636 30.6402 18 29.7386 18H25.2784ZM27.0341 16.4943H29.5682C30.4091 16.4943 31.0114 16.3314 31.375 16.0057C31.7386 15.6799 31.9205 15.2727 31.9205 14.7841C31.9205 14.4167 31.8277 14.0795 31.642 13.7727C31.4564 13.4659 31.1913 13.2216 30.8466 13.0398C30.5057 12.858 30.1004 12.767 29.6307 12.767H27.0341V16.4943ZM27.0341 11.3977H29.3864C29.7803 11.3977 30.1345 11.322 30.4489 11.1705C30.767 11.0189 31.0189 10.8068 31.2045 10.5341C31.3939 10.2576 31.4886 9.93182 31.4886 9.55682C31.4886 9.07576 31.3201 8.67235 30.983 8.34659C30.6458 8.02083 30.1288 7.85795 29.4318 7.85795H27.0341V11.3977ZM38.1506 18.1932C37.5975 18.1932 37.0975 18.0909 36.6506 17.8864C36.2036 17.678 35.8494 17.3769 35.5881 16.983C35.3305 16.589 35.2017 16.1061 35.2017 15.5341C35.2017 15.0417 35.2964 14.6364 35.4858 14.3182C35.6752 14 35.9309 13.7481 36.2528 13.5625C36.5748 13.3769 36.9347 13.2367 37.3324 13.142C37.7301 13.0473 38.1354 12.9754 38.5483 12.9261C39.071 12.8655 39.4953 12.8163 39.821 12.7784C40.1468 12.7367 40.3835 12.6705 40.5312 12.5795C40.679 12.4886 40.7528 12.3409 40.7528 12.1364V12.0966C40.7528 11.6004 40.6127 11.2159 40.3324 10.9432C40.0559 10.6705 39.643 10.5341 39.0938 10.5341C38.5218 10.5341 38.071 10.661 37.7415 10.9148C37.4157 11.1648 37.1903 11.4432 37.0653 11.75L35.4688 11.3864C35.6581 10.8561 35.9347 10.428 36.2983 10.1023C36.6657 9.77273 37.0881 9.53409 37.5653 9.38636C38.0426 9.23485 38.5445 9.15909 39.071 9.15909C39.4195 9.15909 39.7888 9.20076 40.179 9.28409C40.5729 9.36364 40.9403 9.51136 41.2812 9.72727C41.6259 9.94318 41.9081 10.2519 42.1278 10.6534C42.3475 11.0511 42.4574 11.5682 42.4574 12.2045V18H40.7983V16.8068H40.7301C40.6203 17.0265 40.4555 17.2424 40.2358 17.4545C40.0161 17.6667 39.7339 17.8428 39.3892 17.983C39.0445 18.1231 38.6316 18.1932 38.1506 18.1932ZM38.5199 16.8295C38.9896 16.8295 39.3911 16.7367 39.7244 16.5511C40.0616 16.3655 40.3172 16.1231 40.4915 15.8239C40.6695 15.5208 40.7585 15.197 40.7585 14.8523V13.7273C40.6979 13.7879 40.5805 13.8447 40.4062 13.8977C40.2358 13.947 40.0407 13.9905 39.821 14.0284C39.6013 14.0625 39.3873 14.0947 39.179 14.125C38.9706 14.1515 38.7964 14.1742 38.6562 14.1932C38.3267 14.2348 38.0256 14.3049 37.7528 14.4034C37.4839 14.5019 37.268 14.6439 37.1051 14.8295C36.946 15.0114 36.8665 15.2538 36.8665 15.5568C36.8665 15.9773 37.0218 16.2955 37.3324 16.5114C37.643 16.7235 38.0388 16.8295 38.5199 16.8295ZM48.3963 18.1761C47.5516 18.1761 46.8243 17.9848 46.2145 17.6023C45.6084 17.2159 45.1425 16.6837 44.8168 16.0057C44.491 15.3277 44.3281 14.5511 44.3281 13.6761C44.3281 12.7898 44.4948 12.0076 44.8281 11.3295C45.1615 10.6477 45.6312 10.1155 46.2372 9.73295C46.8433 9.35038 47.5573 9.15909 48.3793 9.15909C49.0421 9.15909 49.633 9.2822 50.152 9.52841C50.6709 9.77083 51.0895 10.1117 51.4077 10.5511C51.7296 10.9905 51.9209 11.5038 51.9815 12.0909H50.3281C50.2372 11.6818 50.0289 11.3295 49.7031 11.0341C49.3812 10.7386 48.9493 10.5909 48.4077 10.5909C47.9342 10.5909 47.5194 10.7159 47.1634 10.9659C46.8111 11.2121 46.5365 11.5644 46.3395 12.0227C46.1425 12.4773 46.044 13.0152 46.044 13.6364C46.044 14.2727 46.1406 14.822 46.3338 15.2841C46.527 15.7462 46.7997 16.1042 47.152 16.358C47.508 16.6117 47.9266 16.7386 48.4077 16.7386C48.7296 16.7386 49.0213 16.6799 49.2827 16.5625C49.5478 16.4413 49.7694 16.2689 49.9474 16.0455C50.1293 15.822 50.2562 15.553 50.3281 15.2386H51.9815C51.9209 15.803 51.7372 16.3068 51.4304 16.75C51.1236 17.1932 50.7126 17.5417 50.1974 17.7955C49.6861 18.0492 49.0857 18.1761 48.3963 18.1761ZM55.3608 15.0398L55.3494 12.9659H55.6449L59.1222 9.27273H61.1562L57.1903 13.4773H56.9233L55.3608 15.0398ZM53.7983 18V6.36364H55.4972V18H53.7983ZM59.3097 18L56.1847 13.8523L57.3551 12.6648L61.3949 18H59.3097Z" fill="#377DFF"/>
<path fill-rule="evenodd" clip-rule="evenodd" d="M17.6001 13C18.3732 13 19 12.7678 19 11.9393C19 11.1109 18.3732 10.8787 17.6001 10.8787L8 11L10.5 8.50001C11.0467 7.91425 11.5467 7.08576 11 6.50001C10.5 6.00001 10 6.00001 9.60974 6.37866L5.40991 10.8787C5.14742 11.1599 5 11.5415 5 11.9393C5 12.3371 5.14742 12.7187 5.40991 13L9.60975 17.5C10.1566 18.0858 10.4532 18.0858 11 17.5C11.5467 16.9142 11.0467 16.0858 10.5 15.5L8 13L17.6001 13Z" fill="#377DFF"/>
</svg>
